# xmcd
#
# Track frame offsets: 
#        150
#        13425
#        34270
#        57400
#        72687
#        86892
#        99540
#        134550
#        148307
#        169100
#        196492
#        242212
#
# Disc length: 3531 seconds
#
# Revision: 0
# Processed by: cddbd v1.5.1PL0 Copyright (c) Steve Scherf et al.
# Submitted via: ExactAudioCopy v0.95a5
#
DISCID=c40dc90c
DTITLE=Milcho Leviev - Bulgarian Piano Blues
DYEAR=1990
DGENRE=Blues
TTITLE0=King Bassie 
TTITLE1=Ice Cream Truck 
TTITLE2=Women's Dance 
TTITLE3=The Island 
TTITLE4=Joe
TTITLE5=Kaval Melody 
TTITLE6=B Major! 
TTITLE7=4 and 3
TTITLE8=N.H. 
TTITLE9=Oh My Grandpa 
TTITLE10=Matsumoto
TTITLE11=Night fires/Bruce Stark
EXTD=
EXTT0=
EXTT1=
EXTT2=
EXTT3=
EXTT4=
EXTT5=
EXTT6=
EXTT7=
EXTT8=
EXTT9=
EXTT10=
EXTT11=
PLAYORDER=
